<svg xmlns="http://www.w3.org/2000/svg" xmlns:xlink="http://www.w3.org/1999/xlink" viewBox="0 0 81.56 79.32"><defs><style>.cls-1{fill:#ff5f13;}.cls-2{clip-path:url(#clip-path);}.cls-3{opacity:0.3;}</style><clipPath id="clip-path"><circle class="cls-1" cx="43.01" cy="38.55" r="38.55"/></clipPath></defs><title>ingot_shape_orange_black</title><g id="Layer_2" data-name="Layer 2"><g id="Layer_3" data-name="Layer 3"><circle class="cls-1" cx="43.01" cy="38.55" r="38.55"/><g class="cls-2"><rect y="34.38" width="4" height="44.71"/><rect x="7.73" y="49.57" width="4" height="29.52"/><rect x="15.46" y="39.94" width="4" height="39.38"/><rect x="23.19" y="36.11" width="4" height="42.98"/><rect x="30.91" y="50.48" width="4" height="28.61"/><rect x="38.64" y="56.09" width="4" height="23"/><rect x="46.37" y="38.97" width="4" height="40.12"/><rect x="54.1" y="46.2" width="4" height="32.89"/><rect x="61.83" y="40.42" width="4" height="38.67"/><rect x="69.56" y="52.75" width="4" height="26.34"/><rect x="77.28" y="47.74" width="4" height="31.35"/><g class="cls-3"><rect x="7.73" y="49.57" width="4" height="29.52"/></g><g class="cls-3"><rect x="23.19" y="36.11" width="4" height="42.98"/></g><g class="cls-3"><rect x="38.64" y="56.09" width="4" height="23"/></g><g class="cls-3"><rect x="54.1" y="46.2" width="4" height="32.89"/></g><g class="cls-3"><rect x="69.56" y="52.75" width="4" height="26.34"/></g></g></g></g></svg>