<svg xmlns="http://www.w3.org/2000/svg" xmlns:xlink="http://www.w3.org/1999/xlink" viewBox="0 0 194.42 79.32"><defs><style>.cls-1,.cls-6{fill:#ff5f13;}.cls-2{clip-path:url(#clip-path);}.cls-3{fill:#fff;}.cls-4{opacity:0.3;}.cls-5{font-size:44.17px;}.cls-5,.cls-6{font-family:ArcaMajora3-Bold, "Arca Majora 3";font-weight:700;}.cls-6{font-size:11px;}</style><clipPath id="clip-path"><circle class="cls-1" cx="43.01" cy="38.55" r="38.55"/></clipPath></defs><title>ingot_orange_black</title><g id="Layer_2" data-name="Layer 2"><g id="Layer_4" data-name="Layer 4"><circle class="cls-1" cx="43.01" cy="38.55" r="38.55"/><g class="cls-2"><rect class="cls-3" y="34.38" width="4" height="44.71"/><rect class="cls-3" x="7.73" y="49.57" width="4" height="29.52"/><rect class="cls-3" x="15.46" y="39.94" width="4" height="39.38"/><rect class="cls-3" x="23.19" y="36.11" width="4" height="42.98"/><rect class="cls-3" x="30.91" y="50.48" width="4" height="28.61"/><rect class="cls-3" x="38.64" y="56.09" width="4" height="23"/><rect class="cls-3" x="46.37" y="38.97" width="4" height="40.12"/><rect class="cls-3" x="54.1" y="46.2" width="4" height="32.89"/><rect class="cls-3" x="61.83" y="40.42" width="4" height="38.67"/><rect class="cls-3" x="69.56" y="52.75" width="4" height="26.34"/><rect class="cls-3" x="77.28" y="47.74" width="4" height="31.35"/><g class="cls-4"><rect class="cls-3" x="7.73" y="49.57" width="4" height="29.52"/></g><g class="cls-4"><rect class="cls-3" x="23.19" y="36.11" width="4" height="42.98"/></g><g class="cls-4"><rect class="cls-3" x="38.64" y="56.09" width="4" height="23"/></g><g class="cls-4"><rect class="cls-3" x="54.1" y="46.2" width="4" height="32.89"/></g><g class="cls-4"><rect class="cls-3" x="69.56" y="52.75" width="4" height="26.34"/></g></g><text class="cls-5" transform="translate(86.46 48.77)">ingot</text><text class="cls-6" transform="translate(150.78 59.66)">brokers</text></g></g></svg>